<?xml version="1.0" encoding="UTF-8"?>
<svg id="Layer_1" data-name="Layer 1" xmlns="http://www.w3.org/2000/svg" version="1.1" viewBox="0 0 919.8 200">
  <defs>
    <style>
      .cls-1 {
        fill: #ed1c53;
      }

      .cls-1, .cls-2, .cls-3, .cls-4, .cls-5 {
        stroke-width: 0px;
      }

      .cls-2 {
        fill: #30c5f4;
      }

      .cls-3 {
        fill: #b0aeae;
      }

      .cls-4 {
        fill: #76c043;
      }

      .cls-5 {
        fill: #afaeae;
        isolation: isolate;
        opacity: .9;
      }
    </style>
  </defs>
  <g>
    <path class="cls-3" d="M341.7,57.1c2.8,0,4.3,1.4,4.3,4.3v19c0,3-1.4,4.5-4.3,4.5h-86.1c-5,0-9.2.4-12.5,1.3-3.3.8-5.9,2.3-7.8,4.3-1.9,2-3.3,4.7-4.2,8-.8,3.4-1.3,7.6-1.3,12.8v27.5c0,5.2.4,9.5,1.3,12.9.8,3.4,2.2,6.1,4.2,8.1,1.9,2,4.5,3.4,7.8,4.3,3.3.8,7.5,1.3,12.5,1.3h86.1c2.8,0,4.3,1.4,4.3,4.3v19c0,2.8-1.4,4.3-4.3,4.3h-87.3c-9.8,0-18.1-.9-25-2.7-6.8-1.8-12.4-4.7-16.7-8.8-4.3-4.1-7.5-9.4-9.5-15.9-2-6.5-3-14.4-3-23.7v-33.3c0-9.3,1-17.2,3-23.6,2-6.5,5.2-11.7,9.5-15.8,4.3-4.1,9.9-7,16.7-8.9,6.8-1.9,15.2-2.8,25-2.8h87.3Z"/>
    <path class="cls-3" d="M476.4,55.4c9.8,0,18.2.9,25.2,2.8,6.9,1.9,12.6,4.9,16.9,8.9,4.3,4.1,7.5,9.4,9.4,15.8,1.9,6.5,2.9,14.4,2.9,23.7v33.4c0,9.3-1,17.3-2.9,23.8-1.9,6.5-5.1,11.9-9.4,15.9-4.3,4.1-10,7-16.9,8.8-6.9,1.8-15.3,2.7-25.2,2.7h-60.1c-9.9,0-18.2-.9-25.1-2.7-6.9-1.8-12.5-4.8-16.8-8.8-4.3-4.1-7.5-9.4-9.5-15.9-2-6.5-3-14.5-3-23.8v-33.4c0-9.3,1-17.2,3-23.7,2-6.5,5.2-11.8,9.5-15.8,4.3-4.1,9.9-7.1,16.8-8.9,6.9-1.9,15.2-2.8,25.1-2.8h60.1ZM391.6,138.1c0,5.1.4,9.3,1.3,12.7.8,3.4,2.2,6.2,4.2,8.2,1.9,2,4.6,3.4,7.9,4.3,3.3.8,7.5,1.3,12.5,1.3h57.7c5.1,0,9.2-.4,12.5-1.3,3.3-.8,5.9-2.3,7.9-4.3,1.9-2,3.3-4.7,4.2-8.2.8-3.4,1.3-7.7,1.3-12.7v-29.2c0-5.1-.4-9.3-1.3-12.7-.8-3.4-2.2-6.2-4.2-8.2-1.9-2-4.6-3.4-7.9-4.3-3.3-.8-7.5-1.3-12.5-1.3h-57.7c-5.1,0-9.2.4-12.5,1.3-3.3.8-5.9,2.3-7.9,4.3-1.9,2-3.3,4.7-4.2,8.2-.8,3.4-1.3,7.7-1.3,12.7v29.2Z"/>
    <path class="cls-3" d="M575.7,57.8c2.8,0,4.1,1.4,4.1,4.1v123.2c0,2.8-1.4,4.1-4.1,4.1h-20.3c-2.9,0-4.3-1.4-4.3-4.1V61.9c0-2.8,1.4-4.1,4.3-4.1h20.3Z"/>
    <path class="cls-3" d="M631.9,61c2.9,0,5.4.1,7.3.4,1.9.2,3.7.8,5.1,1.6,1.5.8,2.9,1.9,4.2,3.3,1.3,1.4,2.9,3.3,4.6,5.6l67.9,89.1c.5.9,1.3,1.3,2.4,1.3h1.6c1,0,1.5-.6,1.5-1.8v-95.3c0-2.7,1.3-4,4-4h19.2c2.7,0,4,1.3,4,4v104.7c0,7.4-1.3,12.4-4,15.1-2.7,2.6-6.8,3.9-12.4,3.9h-15.7c-2.8,0-5.1-.1-7-.4-1.9-.2-3.6-.7-5-1.5s-2.9-1.8-4.3-3.2c-1.4-1.4-3-3.3-4.8-5.7l-68.1-89.1c-.7-.9-1.5-1.3-2.4-1.3h-1.6c-1,0-1.5.6-1.5,1.8v95.3c0,2.7-1.3,4-4,4h-19.2c-2.8,0-4.2-1.3-4.2-4v-104.7c0-7.4,1.3-12.4,4-15.1,2.7-2.6,6.8-3.9,12.4-3.9h16.1Z"/>
    <path class="cls-3" d="M914.5,61.9c1.6,0,2.6.6,2.7,1.7.2,1.1-.1,2.1-1,2.9l-54,54.7,56.5,59.3c.8.8,1.1,1.8,1,2.9-.2,1.1-1.1,1.7-2.7,1.7h-24.1c-1.4,0-2.5-.2-3.3-.5-.8-.4-1.6-1-2.3-1.9l-43.5-45.6-43.6,45.6c-.8.9-1.6,1.6-2.4,1.9-.8.4-1.9.5-3.4.5h-22.9c-1.5,0-2.4-.6-2.6-1.7-.2-1.1.1-2.1,1-2.9l57.9-60.2-52.3-53.8c-.7-.8-1-1.8-.9-2.9.1-1.1,1-1.7,2.6-1.7h24.1c1.4,0,2.5.2,3.3.6.8.4,1.6,1,2.3,1.8l38.4,40.8,40.6-40.8c.7-.8,1.5-1.4,2.3-1.8s1.9-.6,3.3-.6h22.9Z"/>
  </g>
  <g id="Layer_5" data-name="Layer 5">
    <g>
      <path class="cls-2" d="M191.4,190l-11.3-11.1-39.8-39.6,9.1-9c1.6,1.6,4.4.7,4.8-1.5l3.2-19.6c.3-1.8-1.3-3.4-3.2-3.1l-19.8,3.2c-2.2.4-3.1,3-1.5,4.5l.8.8-9,8.9-12.9-12.9c24.5-5.1,42.2-26.5,42.2-51.5S129.9,6.6,100.7,6.6H14c-4.8,0-8.6,3.7-8.6,8.3v13.4c9.9,0,19.8,0,29.6.3-9.8-.2-19.7-.3-29.6-.3h0c0,.1.7.1.7.1v144.1h-1v14.3c0,4.3,3.6,7.8,8.1,7.8h7.4c4,0,7.8-1.6,10.6-4.3l23.8-23.6,25.9,25.6c1.5,1.5,4.1,1.5,5.6,0l37.5-37.2,38.2,37.5c1.2,1.2,2.9,1.9,4.6,1.9h22.4c2.5,0,3.7-2.9,2-4.6ZM19.6,172.5h-10.9s0-110.3,0-110.3v-20.8s0-13,0-13h10.2v39.3s1.4,103.8,1.4,103.8l-.6,1ZM32.3,28.8v128.9l-9.4,9.7-1.3-99.6v-20.8s0-18.4,0-18.4h10.8v.3ZM83.8,163.9l-26.7-26.5c-1.1-1.1-2.9-1.1-4,0l-18.2,17.7V28.6s64.4.1,65.4.1h0c0,0,.2,0,.3,0h0c17,0,30.7,13.7,30.7,30.5s-13.8,30.5-30.7,30.5-13.6-.2-21.4-.4c-4.8,0-8.7,3.6-8.7,8.2v1.6c0,3.6,1.6,7.1,4.3,9.7l33.5,30.8-24.6,24.3Z"/>
      <path class="cls-5" d="M158.4,104.9l-24.1,4.3c-2.2.4-3.1,3-1.5,4.5l.8.8-9,8.9-16.1,16-24.6,24.3-26.7-26.5c-1.1-1.1-2.9-1.1-4,0l-18.2,17.7V28.5h-2.6s0,129.1,0,129.1l-9.4,9.7-1.3-99.6v-20.8s0-18.4,0-18.4h0s-2.6,0-2.6,0h0v39.3s1.4,103.8,1.4,103.8l-.6,1h-10.9s0-110.3,0-110.3v-20.8s0-13,0-13h-2.6s0,143.6,0,143.6c0,.3-.2.5-.5.5h0c-.3,0-.5.2-.5.5v13.8c0,4.3,3.6,7.8,8.1,7.8h7.4c4,0,7.8-1.6,10.6-4.3l23.8-23.6,25.9,25.6c1.5,1.5,4.1,1.5,5.6,0l37.5-37.2,16-15.9,9.1-9c1.6,1.6,4.4.7,4.8-1.5l4.3-23.8c.3-1.8,0,0,0,0Z"/>
      <path class="cls-1" d="M21.6,100.6h.3c1.3,0,2.3-1,2.3-2.3v-37.5c0-1.3-1-2.3-2.3-2.3h-2.8c-1.3,0-2.3,1-2.3,2.3v37.5c0,1.3,1,2.3,2.3,2.3h0M21.6,100.6h.3c1.3,0,2.3-1,2.3-2.3v-37.5c0-1.3-1-2.3-2.3-2.3h-2.8c-1.3,0-2.3,1-2.3,2.3v37.5c0,1.3,1,2.3,2.3,2.3h0"/>
    </g>
  </g>
  <path class="cls-4" d="M34.5,123.5h.3c1.3,0,2.3-1,2.3-2.3v-37.5c0-1.3-1-2.3-2.3-2.3h-2.8c-1.3,0-2.3,1-2.3,2.3v37.5c0,1.3,1,2.3,2.3,2.3h0M34.5,123.5h.3c1.3,0,2.3-1,2.3-2.3v-37.5c0-1.3-1-2.3-2.3-2.3h-2.8c-1.3,0-2.3,1-2.3,2.3v37.5c0,1.3,1,2.3,2.3,2.3h0"/>
  <path class="cls-4" d="M8.4,81.4h.3c1.3,0,2.3-1,2.3-2.3v-37.5c0-1.3-1-2.3-2.3-2.3h-2.8c-1.3,0-2.3,1-2.3,2.3v37.5c0,1.3,1,2.3,2.3,2.3h0M8.4,81.4h.3c1.3,0,2.3-1,2.3-2.3v-37.5c0-1.3-1-2.3-2.3-2.3h-2.8c-1.3,0-2.3,1-2.3,2.3v37.5c0,1.3,1,2.3,2.3,2.3h0"/>
</svg>